<svg width="896" height="908" viewBox="0 0 896 908" fill="none" xmlns="http://www.w3.org/2000/svg">
<path d="M881.84 880H599.707V694.427H615.103C622.801 694.427 629.097 688.27 629.097 680.432C629.097 672.729 622.8 666.437 615.103 666.437H599.707V509.131C599.707 506.474 599.009 503.959 597.608 501.714L584.733 481.141H615.102C622.8 481.141 629.097 474.849 629.097 467.146C629.097 459.453 622.8 453.151 615.102 453.151H562.482V318.805H576.618C584.316 318.805 590.613 312.513 590.613 304.81C590.613 297.117 584.316 290.815 576.618 290.815H528.899V258.909C528.899 256.81 528.478 254.711 527.639 252.888L518.399 233.576H531.274C538.972 233.576 545.269 227.274 545.269 219.581C545.269 211.743 538.972 205.587 531.274 205.587H490.69L484.112 160.529C500.206 153.389 510.424 141.357 510.424 127.081C510.424 110.003 495.867 96.1545 474.039 90.2785L462.841 12.0438C461.862 5.04904 455.987 0.0126343 448.992 0.0126343C442.132 0.0126343 436.117 5.04904 435.132 12.0438L423.939 90.2785C402.106 96.1534 387.554 110.008 387.554 127.081C387.554 141.357 397.767 153.388 413.86 160.529L407.277 205.587H366.272C358.433 205.587 352.277 211.743 352.277 219.581C352.277 227.274 358.433 233.576 366.272 233.576H379.147L369.912 252.888C369.074 254.711 368.516 256.81 368.516 258.909V290.815H321.214C313.375 290.815 307.219 297.117 307.219 304.81C307.219 312.513 313.375 318.805 321.214 318.805H335.35V453.151H285.527C277.829 453.151 271.532 459.453 271.532 467.146C271.532 474.849 277.829 481.141 285.527 481.141H313.235L300.36 501.714C298.959 503.954 298.261 506.469 298.261 509.131V666.437H285.522C277.824 666.437 271.527 672.729 271.527 680.432C271.527 688.271 277.824 694.427 285.522 694.427H298.261V880H14.1678C6.46996 880 0.173157 886.302 0.173157 893.995C0.173157 901.698 6.47009 907.989 14.1678 907.989H881.835C889.532 907.989 895.829 901.698 895.829 893.995C895.829 886.302 889.532 880 881.835 880H881.84ZM448 772.943C423.088 772.943 402.792 793.093 402.792 818.145V880H350.735L350.74 705.907H547.086V880H493.212V818.145C493.207 793.151 473.024 772.943 448.004 772.943H448ZM326.251 513.196L346.261 481.149H551.701L571.712 513.196V666.436H326.245L326.251 513.196ZM363.333 318.809H534.493V453.156H493.212V391.301C493.212 366.312 473.024 346.099 448.009 346.099C423.097 346.099 402.801 366.249 402.801 391.301V453.156H363.337L363.333 318.809ZM396.505 262.132L410.219 233.58H487.328L500.907 262.132V290.82H396.505V262.132Z" fill="#605367"/>
<path d="M881.84 880H599.707V694.427H615.103C622.801 694.427 629.097 688.27 629.097 680.432C629.097 672.729 622.8 666.437 615.103 666.437H599.707V509.131C599.707 506.474 599.009 503.959 597.608 501.714L584.733 481.141H615.102C622.8 481.141 629.097 474.849 629.097 467.146C629.097 459.453 622.8 453.151 615.102 453.151H562.482V318.805H576.618C584.316 318.805 590.613 312.513 590.613 304.81C590.613 297.117 584.316 290.815 576.618 290.815H528.899V258.909C528.899 256.81 528.478 254.711 527.639 252.888L518.399 233.576H531.274C538.972 233.576 545.269 227.274 545.269 219.581C545.269 211.743 538.972 205.587 531.274 205.587H490.69L484.112 160.529C500.206 153.389 510.424 141.357 510.424 127.081C510.424 110.003 495.867 96.1545 474.039 90.2785L462.841 12.0438C461.862 5.04904 455.987 0.0126343 448.992 0.0126343C442.132 0.0126343 436.117 5.04904 435.132 12.0438L423.939 90.2785C402.106 96.1534 387.554 110.008 387.554 127.081C387.554 141.357 397.767 153.388 413.86 160.529L407.277 205.587H366.272C358.433 205.587 352.277 211.743 352.277 219.581C352.277 227.274 358.433 233.576 366.272 233.576H379.147L369.912 252.888C369.074 254.711 368.516 256.81 368.516 258.909V290.815H321.214C313.375 290.815 307.219 297.117 307.219 304.81C307.219 312.513 313.375 318.805 321.214 318.805H335.35V453.151H285.527C277.829 453.151 271.532 459.453 271.532 467.146C271.532 474.849 277.829 481.141 285.527 481.141H313.235L300.36 501.714C298.959 503.954 298.261 506.469 298.261 509.131V666.437H285.522C277.824 666.437 271.527 672.729 271.527 680.432C271.527 688.27 277.824 694.427 285.522 694.427H298.261V880H14.1678C6.46996 880 0.173157 886.302 0.173157 893.995C0.173157 901.698 6.47009 907.989 14.1678 907.989H881.835C889.532 907.989 895.829 901.698 895.829 893.995C895.829 886.302 889.532 880 881.835 880H881.84ZM448 772.943C423.088 772.943 402.792 793.093 402.792 818.145V880H350.735L350.74 705.907H547.086V880H493.212V818.145C493.207 793.151 473.024 772.943 448.004 772.943H448ZM326.251 513.196L346.261 481.149H551.701L571.712 513.196V666.436H326.245L326.251 513.196ZM363.333 318.809H534.493V453.156H493.212V391.301C493.212 366.312 473.024 346.099 448.009 346.099C423.097 346.099 402.801 366.249 402.801 391.301V453.156H363.337L363.333 318.809ZM396.505 262.132L410.219 233.58H487.328L500.907 262.132V290.82H396.505V262.132Z" fill="#605367"/>
<path d="M448.84 494.453C407.559 494.453 374.111 527.901 374.111 569.328C374.111 610.609 407.559 644.057 448.84 644.057C490.261 644.057 523.715 610.609 523.715 569.328C523.715 527.901 490.267 494.453 448.84 494.453ZM470.392 590.735C466.048 595.078 459.173 594.599 455.559 590.735L441.428 576.74C439.464 574.776 438.345 572.12 438.345 569.323V538.115C438.345 532.376 443.105 527.621 448.839 527.621C454.72 527.621 459.334 532.376 459.334 538.115V564.985L470.392 575.896C474.454 579.959 474.455 586.677 470.392 590.735Z" fill="#605367"/>
<path d="M66.44 221.88H273.973C281.703 221.88 287.968 215.62 287.968 207.885C287.968 200.161 281.702 193.891 273.973 193.891H255.416C249.979 172.979 224.703 138.369 189.817 142.584C169.989 144.975 152.729 155.183 146.192 172.896C122.875 161.682 95.5826 170.943 83.9986 193.885L66.436 193.891C58.7068 193.891 52.4413 200.161 52.4413 207.885C52.4413 215.62 58.7069 221.88 66.436 221.88L66.44 221.88Z" fill="#605367"/>
<path d="M632.227 399.973H805.533C813.263 399.973 819.528 393.713 819.528 385.979C819.528 378.255 813.262 371.984 805.533 371.984H789.345C783.647 354.411 763.137 328.072 735.252 331.443C718.695 333.443 704.279 341.963 698.815 356.76C680.263 347.817 658.508 354.427 648.107 371.984H632.221C624.492 371.984 618.227 378.255 618.227 385.979C618.227 393.713 624.497 399.973 632.221 399.973H632.227Z" fill="#605367"/>
</svg>
