<?xml version="1.0" encoding="iso-8859-1"?>
<!-- Generator: Adobe Illustrator 19.0.0, SVG Export Plug-In . SVG Version: 6.00 Build 0)  -->
<svg xmlns="http://www.w3.org/2000/svg" xmlns:xlink="http://www.w3.org/1999/xlink" version="1.1" id="Layer_1" x="0px" y="0px" viewBox="0 0 454.479 454.479" style="enable-background:new 0 0 454.479 454.479;" xml:space="preserve" width="512" height="512">
<g>
	<polyline style="fill:#B3B3B3;" points="433.072,400.278 433.072,359.088 381.732,359.088 381.732,399.99  "/>
	<rect x="7.5" y="402.399" style="fill:#B3B3B3;" width="439.478" height="25.499"/>
	<polygon style="fill:#CCCCCC;" points="107.192,101.658 110.272,139.698 87.272,139.698 90.342,101.658  "/>
	<path style="fill:#CCCCCC;" d="M103.732,365.738v34.54h-19.21l6.08-223.49h16.34l4.93,181.39c-2.75,2.32-5.4,4.77-7.92,7.33   C103.872,365.588,103.792,365.658,103.732,365.738z"/>
	<path style="fill:#ED2E2E;" d="M110.272,139.698h0.24c5.13,0,9.76,2.07,13.12,5.43c3.35,3.36,5.43,7.99,5.43,13.11   c0,10.25-8.3,18.55-18.55,18.55h-3.57h-16.34h-3.58c-5.12,0-9.76-2.08-13.11-5.43c-3.35-3.36-5.43-7.99-5.43-13.12   c0-10.24,8.3-18.54,18.54-18.54h0.25H110.272z"/>
	<path style="fill:#D82525;" d="M97.912,171.358c-3.35-3.36-5.43-7.99-5.43-13.12c0-10.154,8.164-18.389,18.285-18.527   c-0.086-0.001-0.169-0.013-0.255-0.013h-0.24h-23h-0.25c-10.24,0-18.54,8.3-18.54,18.54c0,5.13,2.08,9.76,5.43,13.12   c3.35,3.35,7.99,5.43,13.11,5.43h3.58h16.34h3.57c0.086,0,0.169-0.012,0.255-0.013C105.75,176.707,101.206,174.652,97.912,171.358z   "/>
	<path style="fill:#3B9DFF;" d="M272.852,365.508h-168.9c2.52-2.56,5.17-5.01,7.92-7.33c20.65-17.46,47.36-27.98,76.53-27.98   c22.17,0,42.92,6.08,60.67,16.67C257.782,352.058,265.772,358.328,272.852,365.508z"/>
	<path style="fill:#3B9DFF;" d="M273.062,365.728v34.55h-23.99h-136.05h-9.29v-34.54c0.06-0.08,0.14-0.15,0.22-0.23h168.9   C272.932,365.588,273.002,365.648,273.062,365.728z"/>
	<g>
		<path style="fill:#1E79C4;" d="M211.912,332.528c-19.95,4-38.08,13-53.04,25.65c-2.75,2.32-5.4,4.77-7.92,7.33h-47    c2.52-2.56,5.17-5.01,7.92-7.33c20.65-17.46,47.36-27.98,76.53-27.98C196.452,330.198,204.312,330.998,211.912,332.528z"/>
		<path style="fill:#1E79C4;" d="M150.952,365.508c-0.08,0.08-0.16,0.15-0.22,0.23v34.54h-47v-34.54c0.06-0.08,0.14-0.15,0.22-0.23    H150.952z"/>
	</g>
	<path style="fill:#E6E6E6;" d="M341.732,316.198v22.34v22.83v38.91h-52.66h-16.01v-34.55l0.01,0.01l-0.01-0.23h-0.21   c-7.08-7.18-15.07-13.45-23.78-18.64v-8.33v-22.34v-22.33v-24.92h40h52.66v24.92V316.198z"/>
	<polygon style="fill:#CCCCCC;" points="381.732,268.948 381.732,293.448 381.732,317.948 381.732,342.448 381.732,359.088    381.732,366.948 381.732,400.278 341.732,400.278 341.732,361.368 341.732,338.538 341.732,316.198 341.732,293.868    341.732,268.948 289.072,268.948 289.072,232.728 335.402,232.728 381.732,232.728  "/>
	<path style="fill:#FFD039;" d="M331.782,47.858c27.75,0,50.25,22.5,50.25,50.25s-22.5,50.25-50.25,50.25s-50.24-22.5-50.24-50.25   S304.032,47.858,331.782,47.858z"/>
	<g>
		<path style="fill:#333333;" d="M331.786,155.855c31.842,0,57.747-25.905,57.747-57.748S363.628,40.36,331.786,40.36    c-31.843,0-57.748,25.905-57.748,57.748S299.943,155.855,331.786,155.855z M331.786,55.36c23.571,0,42.747,19.176,42.747,42.748    s-19.176,42.748-42.747,42.748s-42.748-19.176-42.748-42.748S308.215,55.36,331.786,55.36z"/>
		<path style="fill:#333333;" d="M7.5,407.776h439.479c4.143,0,7.5-3.358,7.5-7.5s-3.357-7.5-7.5-7.5h-6.41v-33.69    c0-4.142-3.357-7.5-7.5-7.5h-43.84v-118.86c0-4.142-3.357-7.5-7.5-7.5h-38.83v-19.833c0-4.142-3.357-7.5-7.5-7.5    s-7.5,3.358-7.5,7.5v19.833h-38.83c-4.143,0-7.5,3.358-7.5,7.5v28.72h-32.5c-4.143,0-7.5,3.358-7.5,7.5v65.429    c-16.433-7.645-34.479-11.676-53.17-11.676c-25.095,0-49.031,7.261-69.427,20.764l-4.335-159.505    c12.409-1.981,21.924-12.757,21.924-25.716c0-12.029-8.2-22.175-19.302-25.154l-2.588-32.038    c-0.314-3.895-3.567-6.896-7.476-6.896h-0.924V25.704c0-4.142-3.357-7.5-7.5-7.5s-7.5,3.358-7.5,7.5v68.451h-0.924    c-3.908,0-7.161,3.001-7.476,6.896l-2.588,32.038c-11.102,2.979-19.302,13.125-19.302,25.154c0,12.958,9.512,23.731,21.919,25.715    L77.22,392.776H7.5c-4.143,0-7.5,3.358-7.5,7.5S3.357,407.776,7.5,407.776z M111.231,392.776V373.01h154.334v19.767H111.231z     M425.568,366.586v26.19h-36.34v-26.19H425.568z M296.568,240.227h77.66v21.22h-11.167c-4.143,0-7.5,3.358-7.5,7.5    s3.357,7.5,7.5,7.5h11.167v9.5h-11.167c-4.143,0-7.5,3.358-7.5,7.5s3.357,7.5,7.5,7.5h11.167v9.5h-11.167    c-4.143,0-7.5,3.358-7.5,7.5s3.357,7.5,7.5,7.5h11.167v9.5h-11.167c-4.143,0-7.5,3.358-7.5,7.5s3.357,7.5,7.5,7.5h11.167v9.5    h-11.167c-4.143,0-7.5,3.358-7.5,7.5s3.357,7.5,7.5,7.5h11.167v18.33h-25v-123.83c0-4.142-3.357-7.5-7.5-7.5h-45.16V240.227z     M334.229,276.446v9.923h-41.83c-4.143,0-7.5,3.358-7.5,7.5s3.357,7.5,7.5,7.5h41.83v7.333h-41.83c-4.143,0-7.5,3.358-7.5,7.5    s3.357,7.5,7.5,7.5h41.83v7.333h-41.83c-4.143,0-7.5,3.358-7.5,7.5s3.357,7.5,7.5,7.5h41.83v7.833h-41.83    c-4.143,0-7.5,3.358-7.5,7.5s3.357,7.5,7.5,7.5h41.83v23.907h-53.664v-27.36c-0.033-2.575-1.36-4.831-3.356-6.156    c-4.909-4.87-10.151-9.279-15.667-13.223h10.194c4.143,0,7.5-3.358,7.5-7.5s-3.357-7.5-7.5-7.5h-15.167v-7.333h15.167    c4.143,0,7.5-3.358,7.5-7.5s-3.357-7.5-7.5-7.5h-15.167v-7.333h15.167c4.143,0,7.5-3.358,7.5-7.5s-3.357-7.5-7.5-7.5h-15.167    v-9.923H334.229z M252.484,358.01H124.305c18.608-13.196,40.783-20.31,64.093-20.31C211.698,337.7,233.864,344.808,252.484,358.01    z M97.266,109.154h3.01l1.862,23.044h-6.734L97.266,109.154z M75.981,158.243c0-6.09,4.955-11.044,11.045-11.044h0.247h22.994    h0.248c6.09,0,11.044,4.955,11.044,11.044c0,6.09-4.954,11.045-11.044,11.045H87.026    C80.937,169.288,75.981,164.333,75.981,158.243z M97.897,184.288h1.742l4.635,170.548c-1.594,1.432-3.158,2.906-4.688,4.426    c-1.995,1.325-3.321,3.581-3.354,6.154l-0.001,27.36h-4.006L97.897,184.288z"/>
		<path style="fill:#333333;" d="M446.979,421.275H7.5c-4.143,0-7.5,3.358-7.5,7.5s3.357,7.5,7.5,7.5h439.479    c4.143,0,7.5-3.358,7.5-7.5S451.121,421.275,446.979,421.275z"/>
	</g>
</g>















</svg>
