<?xml version="1.0" encoding="iso-8859-1"?>
<!-- Generator: Adobe Illustrator 19.0.0, SVG Export Plug-In . SVG Version: 6.00 Build 0)  -->
<svg version="1.1" id="Layer_1" xmlns="http://www.w3.org/2000/svg" xmlns:xlink="http://www.w3.org/1999/xlink" x="0px" y="0px"
	 viewBox="0 0 512 512" style="enable-background:new 0 0 512 512;" xml:space="preserve">
<g>
	<g>
		<path d="M373.778,45.468c-35.873,0-65.057,29.184-65.057,65.057c0,35.873,29.184,65.056,65.057,65.056
			c35.872,0,65.056-29.184,65.056-65.057C438.834,74.651,409.65,45.468,373.778,45.468z M373.778,158.683
			c-26.554,0-48.158-21.603-48.158-48.158c0-26.555,21.604-48.158,48.158-48.158c26.554,0,48.157,21.603,48.157,48.158
			C421.936,137.08,400.333,158.683,373.778,158.683z"/>
	</g>
</g>
<g>
	<g>
		<path d="M503.551,442.488h-7.221v-37.954c0-4.666-3.782-8.449-8.449-8.449h-49.389V262.181c0-4.666-3.782-8.449-8.449-8.449
			h-43.745v-22.343c0-4.666-3.782-8.449-8.449-8.449s-8.449,3.783-8.449,8.449v22.343h-43.745c-4.667,0-8.449,3.783-8.449,8.449
			v32.355h-36.613c-4.667,0-8.449,3.783-8.449,8.449v73.71c-18.513-8.613-38.843-13.154-59.899-13.154
			c-28.271,0-55.237,8.18-78.214,23.392l-4.884-179.693c13.979-2.232,24.699-14.372,24.699-28.971
			c0-13.551-9.238-24.982-21.745-28.338l-2.916-36.093c-0.354-4.388-4.018-7.769-8.422-7.769h-1.041V28.957
			c0-4.666-3.782-8.449-8.449-8.449s-8.449,3.783-8.449,8.449v77.115h-1.041c-4.403,0-8.067,3.381-8.422,7.769l-2.916,36.093
			c-12.507,3.356-21.745,14.786-21.745,28.338c0,14.598,10.716,26.735,24.693,28.97l-6.399,235.247H8.449
			c-4.667,0-8.449,3.783-8.449,8.449c0,4.666,3.782,8.449,8.449,8.449h495.102c4.667,0,8.449-3.783,8.449-8.449
			C512,446.271,508.218,442.488,503.551,442.488z M212.243,380.441c26.249,0,51.22,8.008,72.197,22.881H140.038
			C161.001,388.455,185.982,380.441,212.243,380.441z M109.576,122.969h3.391l2.098,25.961h-7.586L109.576,122.969z M112.19,404.732
			c-2.247,1.493-3.741,4.034-3.779,6.933l-0.001,30.823h-4.513l6.39-234.875h1.962l5.222,192.133
			C115.676,401.359,113.914,403.02,112.19,404.732z M98.04,190.714c-6.86,0-12.443-5.582-12.443-12.443s5.582-12.442,12.443-12.442
			h0.278h25.904h0.279c6.861,0,12.442,5.582,12.442,12.442c0,6.861-5.581,12.443-12.442,12.443H98.04z M299.176,442.489H125.309
			v-0.001V420.22h173.867V442.489z M376.531,322.613h-47.124c-4.667,0-8.449,3.783-8.449,8.449c0,4.666,3.782,8.449,8.449,8.449
			h47.124v8.261h-47.124c-4.667,0-8.449,3.783-8.449,8.449c0,4.666,3.782,8.449,8.449,8.449h47.124v8.261h-47.124
			c-4.667,0-8.449,3.783-8.449,8.449c0,4.666,3.782,8.449,8.449,8.449h47.124v8.824h-47.124c-4.667,0-8.449,3.783-8.449,8.449
			c0,4.666,3.782,8.449,8.449,8.449h47.124v26.933h-60.456v-30.823c-0.037-2.901-1.532-5.442-3.781-6.935
			c-5.53-5.486-11.436-10.453-17.65-14.897h11.484c4.667,0,8.449-3.783,8.449-8.449c0-4.666-3.782-8.449-8.449-8.449h-17.087v-8.261
			h17.087c4.667,0,8.449-3.783,8.449-8.449c0-4.666-3.782-8.449-8.449-8.449h-17.087v-8.261h17.087c4.667,0,8.449-3.783,8.449-8.449
			c0-4.666-3.782-8.449-8.449-8.449h-17.087v-11.179h87.489V322.613z M421.592,294.537h-12.58c-4.667,0-8.449,3.783-8.449,8.449
			c0,4.666,3.782,8.449,8.449,8.449h12.58v10.702h-12.58c-4.667,0-8.449,3.783-8.449,8.449c0,4.666,3.782,8.449,8.449,8.449h12.58
			v10.702h-12.58c-4.667,0-8.449,3.783-8.449,8.449c0,4.666,3.782,8.449,8.449,8.449h12.58v10.702h-12.58
			c-4.667,0-8.449,3.783-8.449,8.449c0,4.666,3.782,8.449,8.449,8.449h12.58v10.702h-12.58c-4.667,0-8.449,3.783-8.449,8.449
			c0,4.666,3.782,8.449,8.449,8.449h12.58v20.65h-28.164V302.986c0-4.666-3.782-8.449-8.449-8.449h-50.876v-23.906h87.489V294.537z
			 M479.43,442.488h-40.939v-29.505h40.939V442.488z"/>
	</g>
</g>
<g>
	<g>
		<path d="M503.551,474.594H8.449c-4.667,0-8.449,3.783-8.449,8.449c0,4.666,3.782,8.449,8.449,8.449h495.102
			c4.667,0,8.449-3.783,8.449-8.449C512,478.377,508.217,474.594,503.551,474.594z"/>
	</g>
</g>
<g>
</g>
<g>
</g>
<g>
</g>
<g>
</g>
<g>
</g>
<g>
</g>
<g>
</g>
<g>
</g>
<g>
</g>
<g>
</g>
<g>
</g>
<g>
</g>
<g>
</g>
<g>
</g>
<g>
</g>
</svg>
