<?xml version="1.0" encoding="UTF-8"?>
<svg width="1200pt" height="1200pt" version="1.1" viewBox="0 0 1200 1200" xmlns="http://www.w3.org/2000/svg">
 <g fill="#564A5B">
  <path d="m802.68 573.29h62.461c6.6953 0 13.082-2.8203 17.59-7.7695 4.5078-4.9531 6.7188-11.574 6.0859-18.242-0.62891-6.6641-4.0391-12.754-9.3945-16.773-5.3555-4.0195-12.156-5.5938-18.734-4.3359-3.9102-6.5312-10.121-11.359-17.414-13.539-7.293-2.1758-15.137-1.5391-21.984 1.7812-6.8477 3.3164-12.203 9.082-15.012 16.156-5.9375-1.0117-12.023 0.51172-16.785 4.1992s-7.7578 9.2031-8.2617 15.203c-0.50781 6 1.5273 11.938 5.6016 16.371 4.0781 4.4297 9.8242 6.9492 15.848 6.9492zm0-34.516v-0.003907c1.668 0.003907 3.3164 0.32422 4.8633 0.94531l4.582 1.7969 1.1133-4.7891c1.4258-5.9883 5.3008-11.105 10.684-14.094 5.3828-2.9922 11.773-3.582 17.613-1.6289 5.8359 1.957 10.586 6.2773 13.082 11.902l1.6172 3.6289 3.7383-1.3672v0.003907c1.6562-0.60938 3.4062-0.91797 5.168-0.91406 5.4297 0.03125 10.434 2.9492 13.141 7.6562 2.7031 4.7109 2.7031 10.5 0 15.211-2.707 4.707-7.7109 7.625-13.141 7.6602h-62.461c-7.1836 0-13.004-5.8242-13.004-13.008 0-7.1797 5.8203-13.004 13.004-13.004z"/>
  <path d="m601.37 571.09c9.2148 0.007812 18.051-3.6445 24.57-10.156 6.5195-6.5078 10.188-15.34 10.195-24.555 0.003906-9.2109-3.6484-18.051-10.156-24.57-6.5117-6.5195-15.344-10.188-24.555-10.195-9.2148-0.003906-18.055 3.6484-24.574 10.156-6.5195 6.5117-10.184 15.344-10.191 24.555 0.007813 9.2109 3.6641 18.039 10.172 24.555 6.5078 6.5195 15.332 10.188 24.539 10.211zm0-60.969c6.9609-0.003906 13.637 2.7539 18.562 7.6719 4.9219 4.918 7.6914 11.59 7.6953 18.551 0 6.9609-2.7617 13.633-7.6836 18.555-4.9219 4.9219-11.598 7.6875-18.555 7.6836-6.9609-0.003906-13.633-2.7695-18.551-7.6953-4.918-4.9258-7.6797-11.602-7.6719-18.562 0.011719-6.9453 2.7734-13.602 7.6875-18.516 4.9102-4.9102 11.57-7.6758 18.516-7.6875z"/>
  <path d="m993.48 917c49.172-85.867 68.879-185.47 56.102-283.59-12.773-98.121-57.324-189.36-126.84-259.77-69.52-70.414-160.18-116.13-258.13-130.16v-21.805h-23.121v-68.391h-13.582v-21.328c-0.015625-6.0469-2.125-11.898-5.9688-16.562-3.8477-4.6641-9.1914-7.8477-15.125-9.0117v-39.766h-8.5078v39.609c-6.2422 0.83203-11.973 3.8945-16.129 8.625s-6.457 10.809-6.4766 17.105v21.328h-14.449v68.391h-23.133v21.414c-94.777 12.758-183 55.457-251.81 121.87-11.855-8.3945-26.742-11.301-40.887-7.9844-14.141 3.3203-26.18 12.551-33.062 25.344-10.797-2.7344-22.246-0.70312-31.441 5.582-9.1992 6.2812-15.254 16.207-16.637 27.258-1.3789 11.051 2.0508 22.164 9.4219 30.516 7.3711 8.3477 17.969 13.133 29.105 13.137h8.668c-58.176 96.633-78.18 211.5-56.102 322.11 22.082 110.61 84.656 208.99 175.47 275.88v1.6289h2.2891c68.656 50.172 150.06 79.988 234.88 86.031 84.816 6.0469 169.62-11.926 244.7-51.855 75.078-39.93 137.39-100.2 179.79-173.91h0.97656zm-802.55-50.023h25.188v43.219l-3.7188-0.003906c-7.9336-14.004-15.102-28.43-21.469-43.215zm33.531-269.75h32.086l8.0078 13.559-48.129-0.003906zm16.043-42.086 11.801 33.574h-23.625zm-27.293 64.148h54.539v50.418h-54.539zm63.047 58.926h0.69141v68.438h-32.18l0.011719-33.41h-8.5078l-0.011719 33.41h-32.168v-68.434h72.164zm9.1992 76.945h14.18v15.238l-10.84 11.137-97.418 0.003906-10.816-11.133v-15.242h104.89zm347.52-524.99v30.594h-63.223v-30.594zm23.121 39.098v165.58h-31.266v-119.51l-0.035156-4.2539h-0.38672c-1.4297-7.7461-6.6523-14.262-13.902-17.344-7.25-3.082-15.566-2.3242-22.137 2.0195-6.5742 4.3477-10.527 11.699-10.531 19.578v119.51h-31.219v-165.58zm290.66 327.95h32.086l8.0352 13.559-48.129 0.003906zm16.043-42.082 11.824 33.574-23.625 0.003906zm-27.246 64.148h54.539v50.418l-54.539 0.007813zm63.047 58.926h0.60938v68.438l-32.168 0.007812-0.011719-33.414h-8.5078l0.011718 33.41h-32.18v-68.434h72.246zm9.1172 76.945h15.023v15.246l-10.816 11.133-97.418 0.007813-10.84-11.137v-15.238h104.05zm-29.039 68.957v34.344h-30.949v-34.676h-8.5078v34.684h-23.297v-68.418h92.719v68.414h-21.457v-34.34zm-71.262 47.414-187.96 0.007812v-1.0664h-0.035157v-35.707h-8.0508v-32.934h196.04zm-89.742 38.652v-30.137h40.617v30.148zm40.617 139.73-40.617 0.007813v-29.102h40.617zm-49.125 0-40.617 0.007813v-29.102h40.617zm-49.125 0-40.582 0.007813v-29.102h40.582zm-374.66-169.87v30.148h-40.488v-30.148zm8.5078 0h40.488v30.148h-40.488zm48.996 0h40.957v30.148l-40.957-0.003906zm49.102-251.6v-29.105h36.938v29.102zm16.195-185.08h186.38v30.016l-186.38 0.003906zm78.164-8.5078v-119.51c0-5.3477 2.8516-10.289 7.4844-12.965 4.6328-2.6719 10.34-2.6719 14.973 0 4.6328 2.6758 7.4844 7.6172 7.4844 12.965l0.035157 119.51zm78.914 47.031v108.94l-127.83 0.003906v-108.94zm-127.83 146.56v-29.105h36.926v29.102zm45.434-29.102h36.949v29.102h-36.949zm45.457 0h36.938v29.102h-36.938zm45.445 0h36.926v29.102h-36.926zm-8.5078 37.613v197.81h-29.871v-125.74c0-12.301-6.5625-23.672-17.219-29.82-10.652-6.1523-23.781-6.1523-34.434 0-10.656 6.1484-17.219 17.52-17.219 29.82v125.74h-29.086v-197.81zm-37.781 315.1v60.258h-51.691v-60.258h-8.5078v60.258h-29.848v-93.613h128.44v93.617l-29.883-0.003906v-60.258zm-0.59766-117.29h-51.855v-125.74c0-9.2617 4.9414-17.82 12.965-22.453 8.0195-4.6328 17.906-4.6328 25.926 0 8.0234 4.6328 12.965 13.191 12.965 22.453zm38.379 8.5078v28.113h-127.83v-28.113zm-172.91 36.793h36.574v30.129l-36.574-0.003906zm45.082-0.16797 128.44-0.003906v30.297h-128.44zm136.95 38.809h36.574v93.617l-36.574-0.007812zm0-8.5078v-30.227l3.4688-0.078125h33.105v30.297zm36.539-66.918v27.387l-33.051 0.72656h-4.0977v-28.121zm-181.99 28.113-36.727-0.007813v-28.113h36.727zm-36.574 47.309h36.574v93.617l-36.574-0.003906zm34.055 102.12h2.5195v29.102h-36.574v-29.102zm11.027 0h128.44v29.102h-128.44zm136.95 0h36.574v29.102h-36.574zm45.082-140.78h40.582v30.148l-40.582-0.003906zm49.09 0h40.617v30.148l-40.617-0.003906zm-65.684-45.281h-29.098v-197.81h29.098zm-29.098-243.93v-108.94h21.328l14.969 108.94zm-9.1641-155.98v-103.58h19.289l10.113 103.58zm-126.49 0h-29.484l10.395-103.58h19.09zm-30.473 47.031h21.285v108.94l-36.305 0.007812zm21.285 155.07v197.81h-29.848v-197.81zm-38.355 197.81h-6.8789v36.773h-187.8v-69.707h194.68zm-203.19 23.703h-23.297v-34.684h-8.5078v34.684h-30.949v-34.344h-8.5078v34.344h-21.457v-68.418h92.719zm-62.754 8.5078h30.949v43.219h-30.949zm39.457 0h23.297v43.219h-23.297zm31.805 13.074h40.5v30.148h-40.5zm187.96 38.652v93.617l-40.957-0.003906v-59.883h-8.5078v59.883h-40.488v-60.512h-8.5078v60.508h-40.488v-59.879h-8.5078v59.883h-40.5v-93.613zm-147.46 102.12v29.102h-0.53906c-12.293-9.0898-24.117-18.801-35.418-29.102zm8.5078 0h40.488v29.102h-40.488zm48.996 0h40.488v29.102h-40.488zm48.996 0h40.957v29.102h-40.957zm49.465 37.613h36.574v72.922c-12.367-1.9961-24.559-4.4922-36.574-7.4961zm45.082 0h128.44v73.758c-9.5859 1.4297-19.293 2.4609-29.066 3.2656v-0.003906c-1.418-23.09-13.527-44.191-32.75-57.066l-2.1797-1.3086-2.1797 1.3086c-19.301 12.93-31.43 34.16-32.762 57.355-9.9258-0.73438-19.766-1.75-29.5-3.1289zm136.95 0h36.574v64.656c-11.992 3.0898-24.215 5.5781-36.574 7.668zm45.082 0h132.72c-40.477 27.969-85.332 49.004-132.72 62.238zm147.34-37.613h32.754c-10.473 9.5547-21.391 18.605-32.754 27.148zm40.617-8.5078h-40.617v-60.512h-8.5078v60.508l-40.617 0.003906v-60.512h-8.5078v60.508l-40.617 0.003906v-59.883h-8.5078v59.883h-40.582v-93.613h187.96zm-40.617-102.12v-30.145h40.617v30.148zm49.125-43.219h23.297v43.219h-23.297zm31.805 0h30.949v43.219h-30.949zm39.457 43.219v-43.215h21.871c-6.3672 14.785-13.535 29.211-21.469 43.215zm57.68-217.97c0.039062 52.746-9.3438 105.07-27.715 154.52v-58.352l14.098-14.527v-27.199h-23.531v-76.949h-9.1172v-55.84l-14.906-25.152h-0.046874l-16.324-46.305v-38.082h-8.5078v36.461l-16.828 47.926h-0.082031l-14.859 25.16v55.832h-9.1992v76.945h-22.688v27.207l12.258 12.59v6.8672h-196.04v-156.37h7.8281v-46.117h-0.53906l-15.598-113.52v-42.453h-0.51562l-10.945-112.09h-27v-70.68c105.55 15.738 201.97 68.801 271.74 149.56 69.773 80.754 108.28 183.85 108.52 290.57zm-388.77-431.45h-14.613v-30.594h14.613zm-71.895-128.82c0-6.2891 3.3555-12.098 8.7969-15.242 5.4453-3.1406 12.152-3.1406 17.598 0 5.4414 3.1445 8.7969 8.9531 8.7969 15.242v21.328h-35.191zm-14.449 29.836h63.223v59.883h-26.941v-32.684h-8.5078v32.684h-27.773zm-8.5078 68.391v30.594l-14.625-0.003906v-30.594zm-388.76 189.79c0.011719-9.8828 4.8359-19.145 12.926-24.82 8.0898-5.6758 18.438-7.0586 27.738-3.707l3.7148 1.3242 1.6055-3.5977c4.8047-10.812 13.93-19.105 25.148-22.855 11.223-3.75 23.5-2.6094 33.84 3.1406 10.336 5.7539 17.781 15.586 20.512 27.094l1.125 4.8047 4.582-1.8281v0.003907c7.293-2.9297 15.516-2.4492 22.418 1.3125 6.9023 3.7617 11.762 10.406 13.254 18.125 1.4922 7.7148-0.53906 15.699-5.5391 21.762-5.0039 6.0625-12.453 9.5742-20.312 9.5742h-110.7c-8.0391-0.011719-15.746-3.2109-21.43-8.8984-5.6836-5.6836-8.8789-13.395-8.8867-21.434zm48.82 38.844h92.191c9.9844-0.003906 19.488-4.293 26.098-11.773 6.6094-7.4805 9.6914-17.441 8.4648-27.348-1.2266-9.9102-6.6445-18.816-14.879-24.461-8.2344-5.6406-18.496-7.4805-28.18-5.0508-2.4688-7.4219-6.6289-14.168-12.156-19.703 67.137-64.539 153-106.13 245.27-118.79v71.086h-26.777l-11.254 112.09h-0.40625v42.453l-15.652 113.52h-0.54297v46.117h7.0898v156.37h-194.68v-6.8672l12.258-12.59v-27.207h-22.688v-76.945h-9.1992v-55.832l-14.859-25.16h-0.082032l-16.828-47.922v-36.465h-8.5078v38.082l-16.324 46.305h-0.046875l-14.906 25.152v55.84h-9.1172v76.945h-23.531v27.199l14.098 14.527v66.75c-25.367-64.242-35.398-133.52-29.293-202.32 6.1016-68.797 28.172-135.23 64.449-194zm-4.0117 459.89h70.082v89.676c-27.078-26.789-50.629-56.926-70.082-89.676zm266.55 139.73v63.184c-48.609-13.176-94.617-34.543-136.04-63.184zm91.695 77.965c1.082-19.492 10.719-37.516 26.336-49.23 15.531 11.66 25.152 29.559 26.312 48.945-9.3359 0.58984-18.719 0.98828-28.199 0.98828-8.207-0.003906-16.352-0.26172-24.449-0.70312zm340.39-131.33v-86.367h66.766c-18.648 31.402-41.07 60.41-66.766 86.367z"/>
 </g>
</svg>
